#!OML:ASF \\sashay\E\basketball\basketball\Project 1\Capture day 1\Session 1\Subject.ASF
:FULLY-SPECIFIED
:DEGREES
309
root -32.2516 14.547 1.38195 -185.829 71.7581 165.792
lowerback 15.4203 6.46479 -12.7256
upperback 2.5585 6.62048 -8.06873
thorax -6.23497 3.69317 -3.05117
lowerneck 10.8764 -23.3813 -16.5109
upperneck -43.8035 -24.283 39.4558
head -6.4722 -13.5518 17.7395
rclavicle -1.98785e-014 -1.11319e-013
rhumerus -28.7962 49.1807 -111.871
rradius 96.9298
rwrist 4.23675
rhand -26.3802 28.5678
rfingers 7.12502
rthumb 0.178532 -1.41188
lclavicle -1.98785e-014 -1.11319e-013
lhumerus -36.2855 -24.2808 95.7033
lradius 119.22
lwrist 26.3816
lhand -42.0824 51.1281
lfingers 7.12502
lthumb -14.9746 80.5667
rfemur -27.9438 -22.7382 7.95915
rtibia 80.4783
rfoot -17.8418 -11.5238
rtoes -10.2621
lfemur -24.5552 10.5404 -14.1836
ltibia 59.2896
lfoot -23.8513 -12.7443
ltoes -26.563
310
root -32.1957 14.5459 1.41348 -184.762 70.9384 166.554
lowerback 15.2375 5.76925 -11.646
upperback 2.44967 5.88329 -8.11778
thorax -6.11852 3.31046 -3.48403
lowerneck 11.0425 -23.1169 -16.183
upperneck -43.9116 -23.8142 39.3006
head -6.77242 -13.3402 17.8879
rclavicle -2.78299e-014 3.65764e-014
rhumerus -27.0862 49.6733 -110.46
rradius 99.3558
rwrist 6.61876
rhand -27.8907 30.1927
rfingers 7.12502
rthumb -1.28031 0.216761
lclavicle -2.78299e-014 3.65764e-014
lhumerus -35.8711 -24.6249 96.2021
lradius 120.396
lwrist 24.8039
lhand -42.4029 50.3248
lfingers 7.12502
lthumb -15.2832 79.7402
rfemur -28.5489 -23.8356 6.7123
rtibia 79.6674
rfoot -18.0824 -11.4508
rtoes -11.3783
lfemur -25.6405 9.59571 -13.7735
ltibia 60.3406
lfoot -22.6602 -12.7937
ltoes -27.2785
311
root -32.1478 14.546 1.4557 -184.577 71.1932 167.027
lowerback 15.5395 5.50164 -10.801
upperback 2.39905 5.5948 -8.12254
thorax -6.25782 3.15133 -3.9126
lowerneck 10.7841 -22.8501 -15.6068
upperneck -43.4308 -23.4062 38.7983
head -6.91189 -13.1432 17.6709
rclavicle 3.49861e-014 3.02153e-014
rhumerus -25.1423 50.4362 -108.965
rradius 101.626
rwrist 8.15574
rhand -29.8294 31.9008
rfingers 7.12502
rthumb -3.15266 1.94441
lclavicle 3.49861e-014 3.02153e-014
lhumerus -35.5071 -25.1038 96.7144
lradius 121.493
lwrist 23.1736
lhand -42.9455 49.179
lfingers 7.12502
lthumb -15.8059 78.5537
rfemur -28.8878 -23.5873 5.42429
rtibia 78.6497
rfoot -18.1754 -11.3357
rtoes -13.8246
lfemur -25.9553 9.63814 -13.1682
ltibia 61.5723
lfoot -21.6435 -12.6201
ltoes -28.9529
312
root -32.0975 14.5397 1.49632 -184.594 71.3711 167.525
lowerback 16.0687 5.1997 -10.0346
upperback 2.40148 5.22416 -7.97381
thorax -6.4916 2.95011 -4.13633
lowerneck 10.1921 -22.3975 -14.9015
upperneck -42.5309 -22.8092 37.8807
head -7.01754 -12.8048 17.2051
rclavicle 5.00937e-014 -1.24042e-013
rhumerus -22.933 50.8897 -106.992
rradius 103.703
rwrist 10.8776
rhand -32.1304 33.8551
rfingers 7.12502
rthumb -5.3746 3.94324
lclavicle 5.00937e-014 -1.24042e-013
lhumerus -35.1572 -25.3637 97.4185
lradius 122.51
lwrist 21.4133
lhand -42.1957 47.9793
lfingers 7.12502
lthumb -15.0837 77.4097
rfemur -28.8597 -23.3603 4.04609
rtibia 77.3359
rfoot -18.461 -11.1149
rtoes -16.0299
lfemur -26.0857 9.64682 -12.5015
ltibia 62.942
lfoot -20.2877 -12.911
ltoes -29.0824
313
root -32.0454 14.5225 1.54414 -184.583 71.968 168.351
lowerback 16.8016 5.03926 -9.49262
upperback 2.40869 4.97694 -7.61847
thorax -6.87466 2.80844 -4.06253
lowerneck 9.90797 -21.7111 -14.6927
upperneck -41.5134 -22.0036 37.2959
head -7.02442 -12.387 16.9791
rclavicle -5.24792e-014 5.88403e-014
rhumerus -20.7611 51.5616 -104.943
rradius 105.559
rwrist 13.5065
rhand -34.2577 36.2194
rfingers 7.12502
rthumb -7.42833 6.36982
lclavicle -5.24792e-014 5.88403e-014
lhumerus -34.8208 -25.3765 97.9511
lradius 123.563
lwrist 19.343
lhand -39.4995 46.8852
lfingers 7.12502
lthumb -12.4853 76.4923
rfemur -28.5667 -22.6801 2.83618
rtibia 75.7909
rfoot -18.7623 -10.6995
rtoes -17.307
lfemur -25.7984 10.207 -11.5045
ltibia 64.4043
lfoot -18.4823 -13.8311
ltoes -26.1828
314
root -31.997 14.4936 1.60424 -183.516 72.7183 170.314
lowerback 17.6152 4.94071 -8.74534
upperback 2.42382 4.85027 -7.13723
thorax -7.2892 2.71558 -3.996
lowerneck 10.1844 -20.7806 -14.0848
upperneck -43.2903 -20.1115 36.7194
head -8.47041 -11.2938 17.6713
rclavicle 3.81667e-014 -6.36111e-015
rhumerus -18.5463 52.019 -102.843
rradius 107.217
rwrist 16.8808
rhand -36.7109 38.0372
rfingers 7.12502
rthumb -9.79571 8.28504
lclavicle 3.81667e-014 -6.36111e-015
lhumerus -34.6548 -25.9874 98.483
lradius 124.514
lwrist 18.2726
lhand -39.36 45.965
lfingers 7.12502
lthumb -12.3507 75.5802
rfemur -28.488 -21.6574 2.33674
rtibia 73.8359
rfoot -17.4682 -12.4158
rtoes -25.3164
lfemur -25.5611 11.083 -9.99319
ltibia 65.9688
lfoot -16.6226 -14.8159
ltoes -24.3005
315
root -31.9479 14.4576 1.63657 -181.543 72.9268 172.683
lowerback 17.8327 4.49837 -7.42423
upperback 2.45488 4.47435 -6.75157
thorax -7.31255 2.48472 -4.22062
lowerneck 9.98668 -19.9363 -13.5083
upperneck -43.5066 -18.7164 35.9237
head -9.2032 -10.494 17.7013
rclavicle -4.85035e-014 1.06549e-013
rhumerus -16.1697 52.1457 -100.671
rradius 108.681
rwrist 22.184
rhand -39.7323 38.7608
rfingers 7.12502
rthumb -12.7097 9.16754
lclavicle -4.85035e-014 1.06549e-013
lhumerus -34.381 -26.7786 98.9067
lradius 125.482
lwrist 17.1921
lhand -39.7294 45.6416
lfingers 7.12502
lthumb -12.707 75.235
rfemur -28.8058 -21.2423 1.92406
rtibia 71.7354
rfoot -15.7947 -13.7722
rtoes -31.2854
lfemur -26.1974 11.4447 -8.69721
ltibia 67.7218
lfoot -15.0302 -15.3798
ltoes -23.763
316
root -31.8903 14.42 1.6862 -179.958 73.2925 174.9
lowerback 18.2163 4.176 -6.49089
upperback 2.57451 4.19228 -6.23837
thorax -7.37174 2.31174 -4.12967
lowerneck 9.15081 -19.1405 -13.2018
upperneck -42.0535 -17.8101 35.0379
head -9.00346 -10.0059 17.0632
rclavicle 1.4074e-013 -3.49861e-014
rhumerus -13.278 52.0423 -97.9132
rradius 109.846
rwrist 30.624
rhand -43.5635 37.4385
rfingers 7.12502
rthumb -16.4009 8.11185
lclavicle 1.4074e-013 -3.49861e-014
lhumerus -34.071 -27.6055 99.3521
lradius 126.335
lwrist 16.0455
lhand -40.4315 45.9746
lfingers 7.12502
lthumb -13.3838 75.5247
rfemur -28.8163 -20.3728 1.45842
rtibia 69.4779
rfoot -14.7082 -14.1405
rtoes -32.3625
lfemur -26.3695 12.0636 -7.35656
ltibia 69.5084
lfoot -13.9639 -15.8327
ltoes -23.4028
317
root -31.8382 14.366 1.73106 -179.269 73.4369 176.372
lowerback 18.7227 3.67715 -5.96048
upperback 2.88794 3.63495 -5.41049
thorax -7.33843 2.01968 -3.39936
lowerneck 7.76919 -18.1679 -13.8139
upperneck -39.9886 -16.9699 34.1338
head -8.31022 -9.44575 16.3056
rclavicle 5.1684e-014 -4.29375e-014
rhumerus -10.3574 53.8045 -94.7459
rradius 111.187
rwrist 34.5117
rhand -47.8839 34.2837
rfingers 7.12502
rthumb -20.5569 5.35207
lclavicle 5.1684e-014 -4.29375e-014
lhumerus -33.5187 -27.7402 99.993
lradius 127.083
lwrist 14.0422
lhand -39.821 46.0847
lfingers 7.12502
lthumb -12.7953 75.6726
rfemur -28.4316 -19.677 0.591386
rtibia 67.1655
rfoot -14.0884 -13.9525
rtoes -31.7659
lfemur -26.5046 12.552 -6.42217
ltibia 71.4609
lfoot -14.1177 -15.3985
ltoes -28.4648
318
root -31.7839 14.2877 1.77088 -180.955 73.4408 175.552
lowerback 19.1314 2.98915 -6.61826
upperback 3.51994 2.67948 -4.07267
thorax -6.96938 1.56714 -1.32672
lowerneck 5.29144 -17.0526 -15.8687
upperneck -37.4725 -16.0789 33.4347
head -7.06206 -8.66062 15.6559
rclavicle 1.98785e-014 4.77083e-015
rhumerus -8.32736 60.8164 -91.2476
rradius 102.319
rwrist 1.90796
rhand -25.9636 27.7455
rfingers 7.12502
rthumb 0.580942 -2.23344
lclavicle 1.98785e-014 4.77083e-015
lhumerus -32.6269 -26.9329 101.373
lradius 127.413
lwrist 12.1112
lhand -41.298 45.3607
lfingers 7.12502
lthumb -14.2188 74.854
rfemur -27.4105 -19.1495 -1.23083
rtibia 64.8117
rfoot -13.9921 -13.3297
rtoes -33.4288
lfemur -26.5022 12.9429 -6.29945
ltibia 73.5233
lfoot -15.1995 -14.0914
ltoes -35.7317
319
root -31.728 14.2136 1.80485 -179.583 73.488 177.664
lowerback 19.546 2.32082 -6.22545
upperback 3.97488 1.93372 -3.08705
thorax -6.69696 1.19147 -0.292284
lowerneck 2.06447 -16.0602 -15.5297
upperneck -34.5516 -14.9211 31.9241
head -6.10466 -7.84722 14.3676
rclavicle -7.15625e-015 2.38542e-015
rhumerus -6.27311 67.8297 -88.1106
rradius 97.2774
rwrist -4.20425
rhand -23.7546 20.9772
rfingers 7.12502
rthumb 2.71433 -8.98528
lclavicle -7.15625e-015 2.38542e-015
lhumerus -31.8809 -26.9726 101.718
lradius 127.657
lwrist 10.2711
lhand -42.4749 44.8737
lfingers 7.12502
lthumb -15.3526 74.2837
rfemur -26.6149 -18.4427 -1.85358
rtibia 62.4804
rfoot -14.1199 -12.8398
rtoes -35.4955
lfemur -26.7258 13.2295 -5.1179
ltibia 75.5624
lfoot -14.6387 -14.3018
ltoes -34.6664
